# xmcd CD database file
#
# Track frame offsets:
#	150
#	12952
#	26388
#	39025
#	51041
#	65381
#	75119
#	89371
#	101014
#	112831
#	123840
#	139048
#	152358
#	165578
#	177841
#	191093
#
# Disc length: 2723 seconds
#
# Revision: 0
# Processed by: cddbd v1.5.2PL0 Copyright (c) Steve Scherf et al.
# Submitted via: CDex 1.75
#
DISCID=ae0aa110
DTITLE=Howlin' Wolf - Howlin' Wolf Greatest Songs
DYEAR=2018
DGENRE=Blues
TTITLE0=How Many More Years
TTITLE1=All In The Mood (Everybody's In The Mood)
TTITLE2=Bluebird
TTITLE3=Chocolate Drop
TTITLE4=Color And Kind
TTITLE5=Come Back Home
TTITLE6=Decoration Day
TTITLE7=Dorothy Mae
TTITLE8=Gettin' Old And Grey
TTITLE9=Mr. Highway Man
TTITLE10=I Got A Woman
TTITLE11=My Baby Walked Off
TTITLE12=My Last Affair
TTITLE13=Oh Red
TTITLE14=Well That's Alright
TTITLE15=Wolf Is At Your Door
EXTD=YEAR: 2018
EXTT0=
EXTT1=
EXTT2=
EXTT3=
EXTT4=
EXTT5=
EXTT6=
EXTT7=
EXTT8=
EXTT9=
EXTT10=
EXTT11=
EXTT12=
EXTT13=
EXTT14=
EXTT15=
PLAYORDER=
